<?xml version="1.0" encoding="UTF-8" standalone="no"?>
<svg
   width="568.88"
   height="469.80701"
   viewBox="0 0 568.88001 469.80701"
   version="1.1"
   id="svg831"
   sodipodi:docname="icon2.svg"
   inkscape:version="1.2.1 (9c6d41e410, 2022-07-14)"
   xmlns:inkscape="http://www.inkscape.org/namespaces/inkscape"
   xmlns:sodipodi="http://sodipodi.sourceforge.net/DTD/sodipodi-0.dtd"
   xmlns="http://www.w3.org/2000/svg"
   xmlns:svg="http://www.w3.org/2000/svg">
  <defs
     id="defs835" />
  <sodipodi:namedview
     id="namedview833"
     pagecolor="#ffffff"
     bordercolor="#666666"
     borderopacity="1.0"
     inkscape:showpageshadow="2"
     inkscape:pageopacity="0.0"
     inkscape:pagecheckerboard="true"
     inkscape:deskcolor="#d1d1d1"
     showgrid="false"
     inkscape:zoom="0.93039773"
     inkscape:cx="340.1771"
     inkscape:cy="161.75878"
     inkscape:window-width="1920"
     inkscape:window-height="991"
     inkscape:window-x="-9"
     inkscape:window-y="-9"
     inkscape:window-maximized="1"
     inkscape:current-layer="svg831" />
  <g
     id="g993"
     transform="translate(49.999862,100.00021)">
    <path
       id="path803"
       d="m 418.33144,0.00927715 -133.14453,0.0195 c -0.064,2.07100005 -0.76119,5.40355005 0.88281,6.81055005 10.60699,9.0769898 23.6526,18.6097598 32.93359,28.9687498 -11.02099,12.30499 -23.25259,25.42124 -33.89258,37.86523 l 0.0586,120.896493 c 9.88799,9.33599 25.39159,24.0476 34.39258,33.93359 -10.82299,12.05099 -21.17189,23.14387 -33.54688,33.63086 -0.996,0.845 -0.53795,5.69744 -0.12695,7.02344 4.08899,1.101 40.25649,0.46779 47.02148,0.46679 l 0.0508,-70.38085 0.0156,-17.66602 85.93945,0.0215 49.94727,-50.52148 0.0176,-81.294923 c -16.58,-16.76398 -33.83986,-33.10445 -50.54884,-49.77342985 z m -85.42969,46.11718985 67.51172,0.002 c 6.65899,6.24899 13.23743,12.58296 19.73242,19.00195 -0.038,16.78899 0.045,33.5763 0.24805,50.363293 l -9.81446,9.9746 c -3.18699,2.944 -6.84369,6.87316 -9.92968,10.03516 l -67.75586,0.0176 c 0.355,-29.60297 0.0358,-59.751563 0.008,-89.394533 z"
       style="fill:#ffffff" />
    <path
       fill="#fefefe"
       d="m 199.754,0.30477715 c 1.748,-0.151 3.5,-0.244 5.254,-0.277 35.898,-0.712 64.033,12.28199985 89.537,36.88299985 -10.783,11.773 -21.473,23.631 -32.068,35.574 -14.04,-14.488 -29.235,-23.674 -49.917,-24.895 -19.55,-1.145 -38.742,5.605 -53.271,18.737 -18.466,16.474 -27.806,37.621003 -29.633,62.918003 -4.362,60.384 54.537,115.965 113.006,83.518 6.963,-3.864 13.574,-10.553 19.603,-16.008 1.775,0.439 2.308,1.47 3.793,2.937 9.648,10.037 19.483,19.893 29.501,29.561 -20.426,22.053 -44.521,36.598 -74.857,39.829 -31.718,3.466 -63.489,-6.053 -88.076,-26.389 -28.501,-23.508 -46.453,-57.411 -49.879,-94.199 -3.79,-36.792 7.093,-73.594003 30.286,-102.406003 22.777,-27.82 51.306,-42.2409998 86.721,-45.78299985 z"
       id="path807" />
    <path
       fill="#fefefe"
       d="m 0.005,0.04677715 83.35,-0.031 C 83.223,11.234777 83.188,22.453777 83.249,33.673777 l -18.887,-0.022 -0.03,202.174003 19.03,-0.01 -0.01,33.799 -83.304,0.036 -0.018,-33.813 18.886,-0.013 L 18.997,33.673777 0,33.655777 Z"
       id="path809" />
  </g>
</svg>
