<?xml version="1.0" encoding="UTF-8" standalone="no"?>
<svg
   class="img-fluid"
   id="outputsvg"
   width="263.49033mm"
   height="46.576252mm"
   viewBox="0 0 9958.6895 1760.3623"
   version="1.1"
   sodipodi:docname="logo.svg"
   inkscape:version="1.2.1 (9c6d41e410, 2022-07-14)"
   xmlns:inkscape="http://www.inkscape.org/namespaces/inkscape"
   xmlns:sodipodi="http://sodipodi.sourceforge.net/DTD/sodipodi-0.dtd"
   xmlns="http://www.w3.org/2000/svg"
   xmlns:svg="http://www.w3.org/2000/svg">
  <defs
     id="defs25" />
  <sodipodi:namedview
     id="namedview23"
     pagecolor="#ffffff"
     bordercolor="#666666"
     borderopacity="1.0"
     inkscape:showpageshadow="2"
     inkscape:pageopacity="0"
     inkscape:pagecheckerboard="true"
     inkscape:deskcolor="#d1d1d1"
     showgrid="false"
     inkscape:zoom="0.62928661"
     inkscape:cx="523.60879"
     inkscape:cy="59.591289"
     inkscape:window-width="1920"
     inkscape:window-height="991"
     inkscape:window-x="-9"
     inkscape:window-y="-9"
     inkscape:window-maximized="1"
     inkscape:current-layer="outputsvg"
     inkscape:document-units="mm" />
  <g
     id="lgyUGIp7Gdp8SUO9plYbD5"
     fill="#0b295c"
     transform="translate(274.7987,-5094.9212)">
    <g
       id="g6" />
  </g>
  <g
     id="l3IeUJUphXeIZVYCneqDehe"
     fill="#fefefd"
     transform="translate(-2379,-3188)">
    <g
       id="g19">
      <path
         id="p7tcGgXRt"
         d="m 3625,4935 c -251,-46 -483,-222 -599,-453 -170,-339 -117,-754 130,-1021 173,-186 360,-272 594,-273 129,0 219,19 334,71 72,32 175,102 214,144 l 24,25 -99,110 c -54,61 -101,111 -105,111 -4,1 -40,-24 -80,-54 -104,-78 -172,-99 -301,-92 -92,5 -107,9 -186,48 -152,75 -262,211 -300,373 -16,64 -16,198 -1,272 18,88 73,195 136,263 108,117 223,171 363,171 127,0 212,-34 336,-134 l 30,-24 110,104 110,103 -45,46 c -84,87 -263,187 -380,214 -60,14 -199,12 -285,-4 z" />
      <path
         id="pvLnur09g"
         d="m 4267,4944 c -17,-18 0,-42 103,-144 61,-59 110,-115 110,-123 0,-9 -49,-62 -110,-118 l -110,-102 v -396 -396 l 110,-120 c 60,-66 110,-123 110,-127 0,-3 -48,-48 -107,-99 -60,-51 -109,-101 -111,-111 -3,-17 17,-18 436,-18 h 440 l 166,157 166,157 v 266 265 l -173,173 -172,172 h -268 c -205,0 -269,3 -272,13 -3,6 -6,134 -7,282 l -3,270 -151,3 c -82,1 -153,-1 -157,-4 z m 817,-944 67,-69 -3,-161 -3,-160 -61,-61 -60,-60 -212,7 c -116,4 -216,10 -223,15 -10,6 -14,71 -17,258 -2,138 -2,262 2,276 l 6,25 h 219 218 z" />
      <path
         id="prQv7WJ9v"
         d="m 2382,4833 3,-108 63,-3 62,-3 v -654 -654 l -62,-3 -63,-3 -3,-107 -3,-108 h 276 276 l -3,112 -3,113 -60,5 -60,5 v 645 645 l 63,3 62,3 v 109 110 h -275 -276 z" />
      <path
         id="pmdC9DqhG"
         d="m 6846,4564 c -32,-8 -90,-31 -130,-51 -170,-89 -270,-256 -269,-448 1,-328 293,-558 646,-507 99,14 224,72 279,129 l 38,39 -75,74 -74,73 -43,-35 c -77,-63 -104,-73 -198,-73 -147,1 -242,52 -298,159 -23,44 -27,63 -27,141 0,78 4,97 27,140 55,104 141,158 260,163 94,5 158,-14 216,-63 22,-19 48,-35 57,-35 20,0 155,110 155,126 0,16 -78,86 -131,117 -86,51 -153,67 -268,66 -58,0 -132,-7 -165,-15 z" />
      <path
         id="plbzYQPzR"
         d="m 10796,4560 c -104,-27 -226,-85 -226,-108 0,-26 67,-162 80,-162 6,0 37,14 70,30 165,83 415,80 436,-6 9,-35 -5,-73 -36,-95 -14,-11 -88,-35 -165,-54 -172,-43 -231,-66 -285,-112 -61,-53 -84,-104 -84,-188 0,-84 23,-144 79,-200 111,-110 350,-145 554,-80 42,14 91,34 108,45 l 32,19 -35,83 c -19,45 -37,84 -39,87 -3,2 -33,-9 -67,-24 -54,-24 -79,-29 -176,-33 -74,-3 -122,0 -141,8 -78,32 -94,105 -33,146 18,12 89,36 160,52 233,55 306,95 349,189 69,151 -3,322 -165,389 -60,25 -81,28 -202,31 -109,2 -151,-1 -214,-17 z" />
      <path
         id="pJS3NcIBy"
         d="m 11755,4565 c -82,-18 -219,-71 -239,-94 -16,-17 -14,-23 24,-102 22,-46 44,-84 48,-84 4,0 35,15 69,33 85,44 161,62 260,62 125,0 173,-27 173,-97 0,-33 -29,-69 -68,-84 -15,-6 -89,-26 -165,-45 -151,-37 -204,-59 -259,-104 -54,-44 -78,-102 -78,-186 0,-158 114,-272 305,-305 79,-13 223,-7 302,15 63,17 163,62 163,73 0,5 -15,44 -34,88 -38,91 -38,91 -133,51 -159,-67 -363,-30 -363,66 0,32 28,64 68,79 15,6 88,26 162,45 170,43 249,80 294,140 80,105 70,246 -26,351 -77,83 -167,113 -333,112 -60,0 -137,-6 -170,-14 z" />
      <path
         id="p10l5omhHo"
         d="m 6030,4070 v -500 h 120 120 l -2,498 -3,497 -117,3 -118,3 z" />
      <path
         id="p15YgkLo3u"
         d="m 7560,4070 v -500 h 279 c 249,0 286,2 342,20 169,52 259,170 259,341 0,89 -28,164 -87,229 -86,96 -190,130 -395,130 -91,0 -138,4 -146,12 -8,8 -12,54 -12,140 v 128 h -120 -120 z m 557,-3 c 52,-28 78,-73 77,-137 0,-68 -22,-111 -70,-141 -32,-19 -54,-23 -165,-27 -94,-3 -133,-1 -144,8 -12,10 -15,40 -15,160 0,80 3,150 8,154 4,4 68,6 142,4 103,-3 142,-7 167,-21 z" />
      <path
         id="p1HAxFwdey"
         d="m 8600,4070 v -500 h 278 c 292,0 334,5 420,49 112,57 172,152 180,281 8,135 -41,242 -141,305 -25,17 -47,34 -47,39 0,4 35,58 78,120 104,146 132,189 132,199 0,4 -57,6 -127,5 l -128,-3 -90,-137 -90,-137 h -112 l -112,-1 -3,138 -3,137 -117,3 -118,3 z m 550,-2 c 65,-34 85,-67 85,-143 0,-72 -18,-106 -76,-140 -29,-17 -57,-20 -176,-24 l -143,-3 v 166 166 h 133 c 118,0 138,-3 177,-22 z" />
      <path
         id="pFpsr114Q"
         d="m 9667,4078 c -3,-271 -3,-496 0,-500 2,-5 175,-8 384,-8 h 379 l 1,23 c 5,68 6,134 2,150 -4,16 -24,17 -252,17 -297,0 -281,-7 -281,118 v 82 h 213 c 116,0 222,3 235,6 21,6 22,11 22,95 v 89 h -229 c -153,0 -232,4 -236,11 -4,6 -4,55 0,110 l 7,99 h 274 275 l -3,98 -3,97 -391,3 -391,2 z" />
    </g>
  </g>
  <g
     id="g441"
     fill="#0b295c"
     transform="translate(-2379,-3188)" />
  <g
     id="g465"
     fill="#fefefd"
     transform="translate(-2379,-3188)">
    <g
       id="g463">
      <path
         id="path443"
         d="m 3625,4935 c -251,-46 -483,-222 -599,-453 -170,-339 -117,-754 130,-1021 173,-186 360,-272 594,-273 129,0 219,19 334,71 72,32 175,102 214,144 l 24,25 -99,110 c -54,61 -101,111 -105,111 -4,1 -40,-24 -80,-54 -104,-78 -172,-99 -301,-92 -92,5 -107,9 -186,48 -152,75 -262,211 -300,373 -16,64 -16,198 -1,272 18,88 73,195 136,263 108,117 223,171 363,171 127,0 212,-34 336,-134 l 30,-24 110,104 110,103 -45,46 c -84,87 -263,187 -380,214 -60,14 -199,12 -285,-4 z" />
      <path
         id="path445"
         d="m 4267,4944 c -17,-18 0,-42 103,-144 61,-59 110,-115 110,-123 0,-9 -49,-62 -110,-118 l -110,-102 v -396 -396 l 110,-120 c 60,-66 110,-123 110,-127 0,-3 -48,-48 -107,-99 -60,-51 -109,-101 -111,-111 -3,-17 17,-18 436,-18 h 440 l 166,157 166,157 v 266 265 l -173,173 -172,172 h -268 c -205,0 -269,3 -272,13 -3,6 -6,134 -7,282 l -3,270 -151,3 c -82,1 -153,-1 -157,-4 z m 817,-944 67,-69 -3,-161 -3,-160 -61,-61 -60,-60 -212,7 c -116,4 -216,10 -223,15 -10,6 -14,71 -17,258 -2,138 -2,262 2,276 l 6,25 h 219 218 z" />
      <path
         id="path447"
         d="m 2382,4833 3,-108 63,-3 62,-3 v -654 -654 l -62,-3 -63,-3 -3,-107 -3,-108 h 276 276 l -3,112 -3,113 -60,5 -60,5 v 645 645 l 63,3 62,3 v 109 110 h -275 -276 z" />
      <path
         id="path449"
         d="m 6846,4564 c -32,-8 -90,-31 -130,-51 -170,-89 -270,-256 -269,-448 1,-328 293,-558 646,-507 99,14 224,72 279,129 l 38,39 -75,74 -74,73 -43,-35 c -77,-63 -104,-73 -198,-73 -147,1 -242,52 -298,159 -23,44 -27,63 -27,141 0,78 4,97 27,140 55,104 141,158 260,163 94,5 158,-14 216,-63 22,-19 48,-35 57,-35 20,0 155,110 155,126 0,16 -78,86 -131,117 -86,51 -153,67 -268,66 -58,0 -132,-7 -165,-15 z" />
      <path
         id="path451"
         d="m 10796,4560 c -104,-27 -226,-85 -226,-108 0,-26 67,-162 80,-162 6,0 37,14 70,30 165,83 415,80 436,-6 9,-35 -5,-73 -36,-95 -14,-11 -88,-35 -165,-54 -172,-43 -231,-66 -285,-112 -61,-53 -84,-104 -84,-188 0,-84 23,-144 79,-200 111,-110 350,-145 554,-80 42,14 91,34 108,45 l 32,19 -35,83 c -19,45 -37,84 -39,87 -3,2 -33,-9 -67,-24 -54,-24 -79,-29 -176,-33 -74,-3 -122,0 -141,8 -78,32 -94,105 -33,146 18,12 89,36 160,52 233,55 306,95 349,189 69,151 -3,322 -165,389 -60,25 -81,28 -202,31 -109,2 -151,-1 -214,-17 z" />
      <path
         id="path453"
         d="m 11755,4565 c -82,-18 -219,-71 -239,-94 -16,-17 -14,-23 24,-102 22,-46 44,-84 48,-84 4,0 35,15 69,33 85,44 161,62 260,62 125,0 173,-27 173,-97 0,-33 -29,-69 -68,-84 -15,-6 -89,-26 -165,-45 -151,-37 -204,-59 -259,-104 -54,-44 -78,-102 -78,-186 0,-158 114,-272 305,-305 79,-13 223,-7 302,15 63,17 163,62 163,73 0,5 -15,44 -34,88 -38,91 -38,91 -133,51 -159,-67 -363,-30 -363,66 0,32 28,64 68,79 15,6 88,26 162,45 170,43 249,80 294,140 80,105 70,246 -26,351 -77,83 -167,113 -333,112 -60,0 -137,-6 -170,-14 z" />
      <path
         id="path455"
         d="m 6030,4070 v -500 h 120 120 l -2,498 -3,497 -117,3 -118,3 z" />
      <path
         id="path457"
         d="m 7560,4070 v -500 h 279 c 249,0 286,2 342,20 169,52 259,170 259,341 0,89 -28,164 -87,229 -86,96 -190,130 -395,130 -91,0 -138,4 -146,12 -8,8 -12,54 -12,140 v 128 h -120 -120 z m 557,-3 c 52,-28 78,-73 77,-137 0,-68 -22,-111 -70,-141 -32,-19 -54,-23 -165,-27 -94,-3 -133,-1 -144,8 -12,10 -15,40 -15,160 0,80 3,150 8,154 4,4 68,6 142,4 103,-3 142,-7 167,-21 z" />
      <path
         id="path459"
         d="m 8600,4070 v -500 h 278 c 292,0 334,5 420,49 112,57 172,152 180,281 8,135 -41,242 -141,305 -25,17 -47,34 -47,39 0,4 35,58 78,120 104,146 132,189 132,199 0,4 -57,6 -127,5 l -128,-3 -90,-137 -90,-137 h -112 l -112,-1 -3,138 -3,137 -117,3 -118,3 z m 550,-2 c 65,-34 85,-67 85,-143 0,-72 -18,-106 -76,-140 -29,-17 -57,-20 -176,-24 l -143,-3 v 166 166 h 133 c 118,0 138,-3 177,-22 z" />
      <path
         id="path461"
         d="m 9667,4078 c -3,-271 -3,-496 0,-500 2,-5 175,-8 384,-8 h 379 l 1,23 c 5,68 6,134 2,150 -4,16 -24,17 -252,17 -297,0 -281,-7 -281,118 v 82 h 213 c 116,0 222,3 235,6 21,6 22,11 22,95 v 89 h -229 c -153,0 -232,4 -236,11 -4,6 -4,55 0,110 l 7,99 h 274 275 l -3,98 -3,97 -391,3 -391,2 z" />
    </g>
  </g>
</svg>
