<?xml version="1.0" encoding="UTF-8" standalone="no"?>
<svg
   width="469.37347"
   height="393.3161"
   viewBox="0 0 469.37347 393.3161"
   version="1.1"
   id="svg831"
   sodipodi:docname="logo_square.svg"
   inkscape:version="1.2.1 (9c6d41e410, 2022-07-14)"
   xmlns:inkscape="http://www.inkscape.org/namespaces/inkscape"
   xmlns:sodipodi="http://sodipodi.sourceforge.net/DTD/sodipodi-0.dtd"
   xmlns="http://www.w3.org/2000/svg"
   xmlns:svg="http://www.w3.org/2000/svg">
  <defs
     id="defs835" />
  <sodipodi:namedview
     id="namedview833"
     pagecolor="#ffffff"
     bordercolor="#666666"
     borderopacity="1.0"
     inkscape:showpageshadow="2"
     inkscape:pageopacity="0.0"
     inkscape:pagecheckerboard="true"
     inkscape:deskcolor="#d1d1d1"
     showgrid="false"
     inkscape:zoom="0.93039773"
     inkscape:cx="413.26412"
     inkscape:cy="161.75878"
     inkscape:window-width="1920"
     inkscape:window-height="991"
     inkscape:window-x="-9"
     inkscape:window-y="-9"
     inkscape:window-maximized="1"
     inkscape:current-layer="svg831" />
  <path
     id="path803"
     d="m 418.33144,0.00927715 -133.14453,0.0195 c -0.064,2.07100005 -0.76119,5.40355005 0.88281,6.81055005 10.60699,9.0769898 23.6526,18.6097598 32.93359,28.9687498 -11.02099,12.30499 -23.25259,25.42124 -33.89258,37.86523 l 0.0586,120.896493 c 9.88799,9.33599 25.39159,24.0476 34.39258,33.93359 -10.82299,12.05099 -21.17189,23.14387 -33.54688,33.63086 -0.996,0.845 -0.53795,5.69744 -0.12695,7.02344 4.08899,1.101 40.25649,0.46779 47.02148,0.46679 l 0.0508,-70.38085 0.0156,-17.66602 85.93945,0.0215 49.94727,-50.52148 0.0176,-81.294923 c -16.58,-16.76398 -33.83986,-33.10445 -50.54884,-49.77342985 z m -85.42969,46.11718985 67.51172,0.002 c 6.65899,6.24899 13.23743,12.58296 19.73242,19.00195 -0.038,16.78899 0.045,33.5763 0.24805,50.363293 l -9.81446,9.9746 c -3.18699,2.944 -6.84369,6.87316 -9.92968,10.03516 l -67.75586,0.0176 c 0.355,-29.60297 0.0358,-59.751563 0.008,-89.394533 z"
     style="fill:#ffffff" />
  <path
     fill="#fefefe"
     d="m 199.754,0.30477715 c 1.748,-0.151 3.5,-0.244 5.254,-0.277 35.898,-0.712 64.033,12.28199985 89.537,36.88299985 -10.783,11.773 -21.473,23.631 -32.068,35.574 -14.04,-14.488 -29.235,-23.674 -49.917,-24.895 -19.55,-1.145 -38.742,5.605 -53.271,18.737 -18.466,16.474 -27.806,37.621003 -29.633,62.918003 -4.362,60.384 54.537,115.965 113.006,83.518 6.963,-3.864 13.574,-10.553 19.603,-16.008 1.775,0.439 2.308,1.47 3.793,2.937 9.648,10.037 19.483,19.893 29.501,29.561 -20.426,22.053 -44.521,36.598 -74.857,39.829 -31.718,3.466 -63.489,-6.053 -88.076,-26.389 -28.501,-23.508 -46.453,-57.411 -49.879,-94.199 -3.79,-36.792 7.093,-73.594003 30.286,-102.406003 22.777,-27.82 51.306,-42.2409998 86.721,-45.78299985 z"
     id="path807" />
  <path
     fill="#fefefe"
     d="m 0.005,0.04677715 83.35,-0.031 C 83.223,11.234777 83.188,22.453777 83.249,33.673777 l -18.887,-0.022 -0.03,202.174003 19.03,-0.01 -0.01,33.799 -83.304,0.036 -0.018,-33.813 18.886,-0.013 L 18.997,33.673777 0,33.655777 Z"
     id="path809" />
  <path
     id="path811"
     d="m 212.61855,316.39405 c -7.81753,0.0389 -15.37548,0.49957 -21.41797,0.51757 l -0.0273,75.05664 17.96485,-0.0312 -0.0469,-21.43945 16.03321,-0.0684 c 4.71299,7.21399 9.4733,14.39779 14.27929,21.55078 l 13.76368,-0.0195 c 1.62699,-0.033 3.92303,0.2475 4.95703,-0.5625 -4.93,-8.85199 -10.94213,-15.91193 -16.07813,-24.16992 6.50799,-4.069 12.60457,-8.50679 14.10156,-16.55078 5.7195,-30.73122 -20.07672,-34.39988 -43.52929,-34.2832 z m -79.24024,0.19531 c -7.78255,0.0235 -15.01205,0.31817 -19.52929,0.3418 l -0.0156,75.00195 17.94531,0.0508 -0.0449,-21.42383 c 7.10799,0.051 18.65379,0.44747 25.30078,-0.76953 25.79798,-6.82799 30.33645,-35.02998 9.85547,-48.54297 -6.03499,-3.98249 -20.54079,-4.69743 -33.51172,-4.6582 z m 7.94727,14.60156 c 5.5572,0.0183 11.23117,0.56344 15.5918,3.13281 7.32399,4.316 5.31748,12.20501 1.27148,18.25 -7.02999,4.445 -17.9112,3.30111 -26.36719,3.28711 l -0.0645,-24.45703 c 2.94187,-0.0454 6.23404,-0.22387 9.56836,-0.21289 z m 77.625,0.01 c 5.72208,0.0362 11.53719,0.66758 16.05469,3.51757 6.84699,4.32 4.85777,12.13884 0.67578,17.79883 -7.767,4.786 -17.30084,3.50258 -26.54883,3.39258 l -0.0801,-24.48242 c 3.0645,-0.0551 6.46519,-0.24827 9.89844,-0.22656 z"
     style="fill:#ffffff" />
  <path
     fill="#fefefe"
     d="m 270.631,316.94078 57.175,-0.002 0.099,14.294 -39.817,0.019 0.042,15.441 34.928,-0.038 0.012,14.165 -34.962,0.03 -0.008,16.699 41.434,0.003 -0.153,14.374 c -19.522,0.223 -39.394,0.043 -58.943,0.052 0.649,-24.314 0.011,-50.497 0.193,-75.037 z"
     id="path819" />
  <path
     fill="#fefefe"
     d="m 366.247,315.88678 c 10.527,-1.372 21.223,1.96 30.461,6.712 l -5.792,13.762 c -8.223,-4.182 -30.746,-12.07 -35.122,1.12 2.046,12.339 45.405,7.906 44.45,30.972 -0.801,19.321 -15.537,24.026 -32.168,24.554 -13.058,-0.519 -20.079,-2.08 -31.287,-9.262 2.251,-4.447 4.542,-8.874 6.873,-13.28 9.134,5.398 33.926,14.892 39.408,0.817 -2.748,-12.476 -43.599,-7.695 -44.34,-29.72 -0.6,-17.828 11.874,-24.091 27.517,-25.675 z"
     id="path821" />
  <path
     fill="#fefefe"
     d="m 436.145,315.87878 c 10.335,-1.043 21.074,1.616 30.009,6.818 l -5.94,13.541 c -7.777,-3.901 -13.904,-6.561 -22.949,-6.002 -5.121,0.317 -12.333,2.788 -11.763,9.023 6.827,10.884 43.607,6.433 43.869,28.815 0.225,19.207 -14.924,24.341 -31.323,24.934 -13.349,-0.582 -20.25,-1.723 -31.751,-9.273 l 6.705,-13.309 c 9.092,5.762 39.349,15.55 37.858,-0.266 -1.124,-11.932 -41.947,-5.694 -42.496,-28.057 -0.474,-19.289 11.57,-24.576 27.781,-26.224 z"
     id="path823" />
  <path
     fill="#fefefe"
     d="m 67.856,315.88078 c 1.21,-0.126 2.426,-0.195 3.642,-0.209 13.975,-0.097 21.836,3.941 31.541,13.361 -3.366,2.657 -8.446,7.733 -11.719,10.829 -5.52,-5.234 -10.448,-8.963 -18.571,-9.225 -6.172,-0.223 -12.17,2.066 -16.625,6.343 -21.398,20.672 7.659,58.614 35.275,31.44 3.613,3.625 7.845,7.298 11.68,10.749 -15.05,16.132 -39.934,19.144 -57.5,5.524 -8.109,-6.251 -13.3,-15.553 -14.362,-25.737 -2.647,-23.916 13.433,-40.761 36.639,-43.075 z"
     id="path825" />
  <path
     fill="#fefefe"
     d="m 0.087,316.98278 17.869,-0.047 0.116,75.023 -18.014,-0.029 z"
     id="path827" />
</svg>
